<svg xmlns="http://www.w3.org/2000/svg" viewBox="0 0 24 24" fill="none">
  <path d="M12 2.5c-5.247 0-9.5 4.253-9.5 9.5s4.253 9.5 9.5 9.5 9.5-4.253 9.5-9.5-4.253-9.5-9.5-9.5Z" fill="#E2E8F0"/>
  <path d="M7.5 12.2c0-2.55 2.07-4.62 4.62-4.62h2.05c.43 0 .78.35.78.78s-.35.78-.78.78h-2.05c-1.69 0-3.06 1.37-3.06 3.06 0 1.69 1.37 3.06 3.06 3.06h2.25c.43 0 .78.35.78.78s-.35.78-.78.78h-2.25c-2.55 0-4.62-2.07-4.62-4.62Z" fill="#0284C7"/>
  <path d="M16.5 11.8c0 2.55-2.07 4.62-4.62 4.62H9.83c-.43 0-.78-.35-.78-.78s.35-.78.78-.78h2.05c1.69 0 3.06-1.37 3.06-3.06 0-1.69-1.37-3.06-3.06-3.06H9.63c-.43 0-.78-.35-.78-.78s.35-.78.78-.78h2.25c2.55 0 4.62 2.07 4.62 4.62Z" fill="#7C3AED"/>
</svg>

